<svg width="76" height="70" viewBox="0 0 76 70" xmlns="http://www.w3.org/2000/svg" xmlns:xlink="http://www.w3.org/1999/xlink"><title>153CF8B3-E238-4CCD-865E-DD818C371A69</title><defs><path id="a" d="M49.2708136 4.0412502h2.69284712v2.69284712H49.2708136z"/><mask id="d" x="0" y="0" width="2.69284712" height="2.69284712" fill="#fff"><use xlink:href="#a"/></mask><path id="b" d="M53.0790745 7.84951112h2.69284712v2.69284712H53.0790745z"/><mask id="e" x="0" y="0" width="2.69284712" height="2.69284712" fill="#fff"><use xlink:href="#b"/></mask><path id="c" d="M47.3666831 9.75364158h2.69284712v2.69284712H47.3666831z"/><mask id="f" x="0" y="0" width="2.69284712" height="2.69284712" fill="#fff"><use xlink:href="#c"/></mask></defs><g fill="none" fill-rule="evenodd"><g transform="rotate(15 53.517 63.95)" stroke="#2690FF" stroke-linejoin="round"><path d="M49.4788406 20.4586667c2.6457971-.1762319 5.3785507-1.3773913 7.5536232-3.5536232 4.2944927-4.2933334 4.791884-10.7582609 1.1107246-14.4394203-3.68-3.68115943-10.1449275-3.18376813-14.4394203 1.11072463-2.1750724 2.17507246-3.3762319 4.9089855-3.5536232 7.55362317l9.3286957 9.3286957z" stroke-width="2" stroke-linecap="round" fill="#DFEFFF"/><use mask="url(#d)" stroke-width="4" stroke-linecap="round" transform="rotate(45 50.617 5.388)" xlink:href="#a"/><use mask="url(#e)" stroke-width="4" stroke-linecap="round" transform="rotate(45 54.425 9.196)" xlink:href="#b"/><use mask="url(#f)" stroke-width="4" stroke-linecap="round" transform="rotate(45 48.713 11.1)" xlink:href="#c"/><path stroke-width="2" stroke-linecap="round" fill="#2690FF" d="M41.0064928 11.9862029l7.6162318 7.6162319-3.8075362 3.8086956-7.6173913-7.6162318z"/><path stroke-width="2" stroke-linecap="round" fill="#DFEFFF" d="M37.1982609 15.7944348l7.6162319 7.6162319-25.7055073 23.8017391-5.7124638-5.7124638z"/><path stroke-width="2" stroke-linecap="round" fill="#2690FF" d="M14.3486377 42.4522899l3.8086956 3.8086956-3.8086956 3.8075362-3.8086957-3.8075362z"/><path d="M12.4445217 48.1647536L2.92336232 57.685913" stroke-width="2" stroke-linecap="square"/><path d="M1.9718261 58.6374493c-2.62956523 2.6295652-2.62956523 6.8915942 0 9.5211594 2.6295652 2.6284058 6.8915942 2.6284058 9.5211594 0m9.5201159 9.5201159c2.6295653-2.6295652 2.6295653-6.8915942 0-9.5211594-2.6295652-2.6284058-6.8915942-2.6284058-9.5211594 0" stroke-width="2" stroke-linecap="round"/></g><path d="M48.13727535 59.8844554c2.88115942 0 5.21739135-1.5571014 5.21739135-3.4782608 0-1.9211595-2.33623193-3.4782609-5.21739135-3.4782609s-5.2173913 1.5571014-5.2173913 3.4782609c0 1.9211594 2.33623188 3.4782608 5.2173913 3.4782608z" fill="#2690FF"/><path d="M52.1952464 55.2467743V39.13778877" stroke="#2690FF" stroke-width="2" stroke-linecap="round" stroke-linejoin="round"/><path d="M63.2097391 64.5221366c2.8811594 0 5.2173913-1.5571015 5.2173913-3.4782609s-2.3362319-3.4782608-5.2173913-3.4782608-5.2173913 1.5571014-5.2173913 3.4782608 2.3362319 3.4782609 5.2173913 3.4782609z" fill="#2690FF"/><path stroke="#2690FF" stroke-width="2" stroke-linecap="round" stroke-linejoin="round" d="M67.2677101 58.7250351V42.9743105l-15.0724637-3.95942028"/></g></svg>